<?xml version="1.0" encoding="UTF-8"?>
<svg version="1.1" xmlns="http://www.w3.org/2000/svg" width="225" height="225">
<path d="M0 0 C74.25 0 148.5 0 225 0 C225 74.25 225 148.5 225 225 C150.75 225 76.5 225 0 225 C0 150.75 0 76.5 0 0 Z " fill="#FEFEFE" transform="translate(0,0)"/>
<path d="M0 0 C43.77357802 -5.79931069 43.77357802 -5.79931069 58.19721985 5.21717834 C67.63480346 13.35502002 75.61692984 22.99681867 83 33 C86.76154738 31.74615087 88.27191198 29.85799698 91 27 C93.51090797 24.48909203 96.02076025 21.9797461 98.5625 19.5 C101.02015888 17.07084467 101.02015888 17.07084467 103 14.4375 C105 12 105 12 107.3125 10.1875 C109.97168237 8.21924291 109.97168237 8.21924291 111.38514709 6.06384277 C113.74418331 2.80267589 115.58233433 0.39185993 119.55612183 -0.70654297 C122.60713412 -0.92407503 125.56463813 -0.90058311 128.62109375 -0.78125 C129.72099136 -0.76993042 130.82088898 -0.75861084 131.95411682 -0.74694824 C135.45038632 -0.70233755 138.94248066 -0.6019952 142.4375 -0.5 C144.81439369 -0.4598536 147.19135199 -0.42335488 149.56835938 -0.390625 C155.380319 -0.30265321 161.18986124 -0.16896927 167 0 C167.01896748 1.75589874 167.03248097 3.51185694 167.04370117 5.26782227 C167.0518132 6.24566177 167.05992523 7.22350128 167.06828308 8.23097229 C166.59603984 27.38146482 153.80097851 47.57947606 140.49267578 60.61865234 C134.62220586 66.05128545 128.23047781 70.57166414 121 74 C121 74.66 121 75.32 121 76 C122.69389192 77.01938721 124.43353396 77.9628469 126.1875 78.875 C137.81897952 85.4940946 146.74999468 94.79242297 154 106 C154.81210937 107.17949219 154.81210937 107.17949219 155.640625 108.3828125 C162.56881102 118.98503657 167.0641952 132.96240316 167.01635742 145.65869141 C167.01281502 146.87729355 167.01281502 146.87729355 167.00920105 148.12051392 C167.00464653 149.05085953 167.00464653 149.05085953 167 150 C159.9526691 150.12671128 152.90563155 150.21431394 145.85742188 150.2746582 C143.45952375 150.29981212 141.06170236 150.33393919 138.6640625 150.37719727 C135.21855751 150.43780735 131.77406554 150.46620156 128.328125 150.48828125 C127.25508118 150.51408768 126.18203735 150.5398941 125.07647705 150.56648254 C117.61279421 150.56929917 117.61279421 150.56929917 114.44433594 147.62573242 C113.96770508 146.75924072 113.49107422 145.89274902 113 145 C111.3545622 143.31237149 109.68711423 141.6459651 108 140 C105.48909203 137.48909203 102.9797461 134.97923975 100.5 132.4375 C98.07084467 129.97984112 98.07084467 129.97984112 95.4375 128 C92.85886826 125.8841996 91.03854402 123.63037938 89 121 C87.68505488 119.64852862 86.35735142 118.30887458 85 117 C81.19893508 118.29010578 79.43173272 120.80993566 77.09724426 123.95256042 C68.58401004 135.35382201 58.37815957 148.85300506 43.64208984 151.45947266 C29.18573121 153.08257581 14.39101593 151.77676651 0 150 C-0.10015948 141.42153609 -0.10015948 141.42153609 0.69921875 137.88671875 C0.85358398 137.20198486 1.00794922 136.51725098 1.16699219 135.81176758 C1.33875977 135.11075928 1.51052734 134.40975098 1.6875 133.6875 C1.86829102 132.94330811 2.04908203 132.19911621 2.23535156 131.43237305 C3.81232935 125.23528019 5.97318923 119.64415907 9 114 C9.89912109 112.28490234 9.89912109 112.28490234 10.81640625 110.53515625 C18.88224313 95.54398419 30.62940314 83.67025871 46 76 C46.66 76 47.32 76 48 76 C48 75.34 48 74.68 48 74 C47.11441406 73.73832031 46.22882813 73.47664063 45.31640625 73.20703125 C27.76553332 66.81925771 14.79481839 48.36225546 7.1875 32.25 C2.68112251 21.77040402 -0.08459328 11.49174825 0 0 Z " fill="#FBF3E8" transform="translate(27,36)"/>
<path d="M0 0 C43.77357802 -5.79931069 43.77357802 -5.79931069 58.19721985 5.21717834 C67.63480346 13.35502002 75.61692984 22.99681867 83 33 C86.76154738 31.74615087 88.27191198 29.85799698 91 27 C93.51090797 24.48909203 96.02076025 21.9797461 98.5625 19.5 C101.02015888 17.07084467 101.02015888 17.07084467 103 14.4375 C105 12 105 12 107.3125 10.1875 C109.97168237 8.21924291 109.97168237 8.21924291 111.38514709 6.06384277 C113.74418331 2.80267589 115.58233433 0.39185993 119.55612183 -0.70654297 C122.60713412 -0.92407503 125.56463813 -0.90058311 128.62109375 -0.78125 C129.72099136 -0.76993042 130.82088898 -0.75861084 131.95411682 -0.74694824 C135.45038632 -0.70233755 138.94248066 -0.6019952 142.4375 -0.5 C144.81439369 -0.4598536 147.19135199 -0.42335488 149.56835938 -0.390625 C155.380319 -0.30265321 161.18986124 -0.16896927 167 0 C167.01896748 1.75589874 167.03248097 3.51185694 167.04370117 5.26782227 C167.0518132 6.24566177 167.05992523 7.22350128 167.06828308 8.23097229 C166.59603984 27.38146482 153.80097851 47.57947606 140.49267578 60.61865234 C134.62220586 66.05128545 128.23047781 70.57166414 121 74 C121 74.66 121 75.32 121 76 C122.69389192 77.01938721 124.43353396 77.9628469 126.1875 78.875 C137.81897952 85.4940946 146.74999468 94.79242297 154 106 C154.81210937 107.17949219 154.81210937 107.17949219 155.640625 108.3828125 C162.56881102 118.98503657 167.0641952 132.96240316 167.01635742 145.65869141 C167.01281502 146.87729355 167.01281502 146.87729355 167.00920105 148.12051392 C167.00464653 149.05085953 167.00464653 149.05085953 167 150 C159.9526691 150.12671128 152.90563155 150.21431394 145.85742188 150.2746582 C143.45952375 150.29981212 141.06170236 150.33393919 138.6640625 150.37719727 C135.21855751 150.43780735 131.77406554 150.46620156 128.328125 150.48828125 C127.25508118 150.51408768 126.18203735 150.5398941 125.07647705 150.56648254 C117.61279421 150.56929917 117.61279421 150.56929917 114.44433594 147.62573242 C113.96770508 146.75924072 113.49107422 145.89274902 113 145 C111.3545622 143.31237149 109.68711423 141.6459651 108 140 C105.48909203 137.48909203 102.9797461 134.97923975 100.5 132.4375 C98.07084467 129.97984112 98.07084467 129.97984112 95.4375 128 C92.85886826 125.8841996 91.03854402 123.63037938 89 121 C87.68505488 119.64852862 86.35735142 118.30887458 85 117 C81.19893508 118.29010578 79.43173272 120.80993566 77.09724426 123.95256042 C68.58401004 135.35382201 58.37815957 148.85300506 43.64208984 151.45947266 C29.18573121 153.08257581 14.39101593 151.77676651 0 150 C-0.10015948 141.42153609 -0.10015948 141.42153609 0.69921875 137.88671875 C0.85358398 137.20198486 1.00794922 136.51725098 1.16699219 135.81176758 C1.33875977 135.11075928 1.51052734 134.40975098 1.6875 133.6875 C1.86829102 132.94330811 2.04908203 132.19911621 2.23535156 131.43237305 C3.81232935 125.23528019 5.97318923 119.64415907 9 114 C9.89912109 112.28490234 9.89912109 112.28490234 10.81640625 110.53515625 C18.88224313 95.54398419 30.62940314 83.67025871 46 76 C46.66 76 47.32 76 48 76 C48 75.34 48 74.68 48 74 C47.11441406 73.73832031 46.22882813 73.47664063 45.31640625 73.20703125 C27.76553332 66.81925771 14.79481839 48.36225546 7.1875 32.25 C2.68112251 21.77040402 -0.08459328 11.49174825 0 0 Z M8 7 C8.37328108 14.17804285 9.77131546 20.23695636 12.5 26.875 C12.85167236 27.7427002 13.20334473 28.61040039 13.56567383 29.50439453 C16.7162977 36.94200101 20.69536904 42.88586522 26 49 C27.18335938 50.48886719 27.18335938 50.48886719 28.390625 52.0078125 C37.61820737 62.58914198 51.34699676 70.73999719 65 74 C67.87732437 74.25658318 67.87732437 74.25658318 70 74 C70 74.66 70 75.32 70 76 C68.47246094 76.185625 68.47246094 76.185625 66.9140625 76.375 C48.14035448 79.37279769 32.99636668 91.17132701 21.7578125 106.04296875 C14.04741187 116.75898293 7.8658217 129.60034017 8 143 C21.07279502 145.48217627 37.67067452 148.48524239 49.70941162 141.40698242 C62.56470257 132.06889626 73.06633239 119.29447334 83 107 C85.81634147 108.28259827 87.86145525 109.61473607 90.03686523 111.80981445 C90.60102646 112.37412674 91.16518768 112.93843903 91.7464447 113.51985168 C92.34445389 114.12818344 92.94246307 114.7365152 93.55859375 115.36328125 C94.18476089 115.99227829 94.81092804 116.62127533 95.45606995 117.26933289 C97.45463254 119.27906716 99.44613995 121.29563129 101.4375 123.3125 C102.77362542 124.65866295 104.11020915 126.00437118 105.44726562 127.34960938 C107.91228168 129.83092933 110.37458974 132.31486912 112.83374023 134.80200195 C113.38003586 135.34352402 113.92633148 135.88504608 114.48918152 136.44297791 C115.85933728 137.85503556 117.12163844 139.36978649 118.36816406 140.89208984 C122.13216781 143.9067845 125.11536358 143.63841077 129.80078125 143.48828125 C130.63715622 143.48120651 131.47353119 143.47413177 132.33525085 143.46684265 C134.99526052 143.43894985 137.65313139 143.37622481 140.3125 143.3125 C142.12041221 143.28741034 143.92835757 143.26459833 145.73632812 143.24414062 C150.15837073 143.18914042 154.57882331 143.10290643 159 143 C159.19478366 126.59582831 150.80282874 110.97750526 140 99 C139.40832031 98.31550781 138.81664062 97.63101563 138.20703125 96.92578125 C127.89252777 85.73157598 112.32011491 76.90118323 97 76 C97 75.34 97 74.68 97 74 C97.84175781 74.05285156 98.68351562 74.10570313 99.55078125 74.16015625 C115.57523227 73.41609907 130.95982301 60.54186291 141.37890625 49.47265625 C150.08349956 39.44249036 159.18067946 24.54947481 159.03930664 10.81787109 C159.02633545 9.55797363 159.01336426 8.29807617 159 7 C153.67985484 6.87616936 148.36055286 6.78555324 143.03930664 6.7253418 C141.23023868 6.7002361 139.42127178 6.66614405 137.61254883 6.62280273 C135.00837249 6.56197421 132.40553969 6.53375191 129.80078125 6.51171875 C128.99538406 6.48591232 128.18998688 6.4601059 127.36018372 6.43351746 C123.06858182 6.43138605 121.51609575 6.57569295 118.07885742 9.40161133 C117.049823 10.68781372 117.049823 10.68781372 116 12 C113.97070059 14.02929941 111.94135321 16.05853717 109.91015625 18.0859375 C108.40969734 19.58946483 106.9212899 21.1050201 105.4375 22.625 C102.85987321 25.1365338 100.15307399 27.4072174 97.35546875 29.66796875 C96.90816406 30.10753906 96.46085937 30.54710938 96 31 C96 31.66 96 32.32 96 33 C94.515 33.495 94.515 33.495 93 34 C93 34.66 93 35.32 93 36 C91.515 36.495 91.515 36.495 90 37 C88.2912354 38.37514541 88.2912354 38.37514541 87 40 C87 40.66 87 41.32 87 42 C86.34 42 85.68 42 85 42 C85 42.66 85 43.32 85 44 C80.27497584 40.381384 76.3592768 36.33131926 72.62762451 31.72253418 C58.82888623 13.99561485 58.82888623 13.99561485 39.08247375 5.24369812 C28.68591063 4.44864321 18.28154235 5.42307633 8 7 Z " fill="#F86A0D" transform="translate(27,36)"/>
<path d="M0 0 C8.25645449 -1.55949087 17.29815682 -2.71644983 24.83972168 1.640625 C31.75977586 6.99592691 37.53179277 13.52324436 43.375 20 C45.19653699 21.93208052 47.02332974 23.85922014 48.85546875 25.78125 C53.29922217 30.46554701 57.6740847 35.20680609 62 40 C65.76154738 38.74615087 67.27191198 36.85799698 70 34 C70.845625 33.175 71.69125 32.35 72.5625 31.5 C75.00896893 29.07236296 75.00896893 29.07236296 77 26.5 C80.55105325 22.06118344 84.57943187 18.5364545 89 15 C90.68762851 13.3545622 92.3540349 11.68711423 94 10 C95.2684375 8.7625 95.2684375 8.7625 96.5625 7.5 C99.06976593 5.15093869 99.06976593 5.15093869 100.44921875 2.36328125 C103.96578322 -0.89479149 106.51349977 -0.51607114 111.171875 -0.43945312 C112.69554687 -0.37661133 112.69554687 -0.37661133 114.25 -0.3125 C115.28125 -0.28994141 116.3125 -0.26738281 117.375 -0.24414062 C119.91814065 -0.18527163 122.45833113 -0.10310065 125 0 C121.55923833 15.45849444 111.24935047 28.44228883 98 37 C81.89933769 46.28587358 65.4874412 49.57834949 47.125 45.875 C28.63093617 40.90748979 14.52059773 28.47947645 4.69140625 12.37109375 C3.32364276 9.6450432 2.33053684 7.16953278 1.39428711 4.28930664 C1.13111191 3.48441299 0.86793671 2.67951935 0.5967865 1.85023499 C0.39984695 1.23965744 0.20290741 0.6290799 0 0 Z " fill="#FDFCF9" transform="translate(48,54)"/>
<path d="M0 0 C11.17612728 8.63470656 18.54586793 19.10238679 24 32 C24 32.99 24 33.98 24 35 C15.96699508 36.46917217 7.54471946 37.67705518 0.21478271 33.359375 C-6.67232248 27.97422249 -12.45722143 21.45830671 -18.3125 15 C-20.13280556 13.06210616 -21.96996887 11.14124754 -23.80664062 9.21875 C-28.26361897 4.53204377 -32.65511943 -0.20931415 -37 -5 C-40.26617388 -3.5875231 -42.22923663 -1.92771954 -44.59326172 0.71533203 C-45.62747757 1.8562883 -45.62747757 1.8562883 -46.68258667 3.02029419 C-47.42412994 3.84117523 -48.16567322 4.66205627 -48.9296875 5.5078125 C-50.54491153 7.23613058 -52.1635184 8.96129217 -53.78515625 10.68359375 C-56.33038111 13.38810894 -58.85409763 16.10153952 -61.32470703 18.87451172 C-75.82092595 35.07822496 -75.82092595 35.07822496 -85.16503906 36.17871094 C-90.51423623 36.36356452 -95.73230891 35.92804631 -101 35 C-100.53588495 33.56710937 -100.06823667 32.13536287 -99.59912109 30.70410156 C-99.33908295 29.90667542 -99.0790448 29.10924927 -98.81112671 28.28765869 C-93.73757734 13.9784895 -81.18493083 1.4073207 -67.98828125 -5.63671875 C-45.09535278 -16.0806822 -20.76052844 -14.17546979 0 0 Z " fill="#FDFCFA" transform="translate(149,133)"/>
<path d="M0 0 C0.91620117 0.00161133 1.83240234 0.00322266 2.77636719 0.00488281 C10.68140701 0.14639107 17.40020025 1.51653334 24.8125 4.375 C25.6375 4.68695313 26.4625 4.99890625 27.3125 5.3203125 C29.54406746 6.24238378 31.66996579 7.26245471 33.8125 8.375 C34.58722656 8.77074219 35.36195313 9.16648437 36.16015625 9.57421875 C51.40650092 18.0068246 64.29889794 32.70879833 69.8125 49.375 C70.63221693 53.3557698 71.26071572 57.3490031 71.8125 61.375 C61.19113748 63.92867159 49.18127327 65.73396416 38.8125 61.375 C24.32927966 52.19074427 12.76053239 37.3787814 1.8125 24.375 C-1.32019662 25.7377768 -3.14541149 27.19057013 -5.31494141 29.81494141 C-5.90681747 30.51534042 -6.49869354 31.21573944 -7.10850525 31.93736267 C-7.74558914 32.69279861 -8.38267303 33.44823456 -9.0390625 34.2265625 C-33.71437732 62.37885433 -33.71437732 62.37885433 -47.06640625 63.69140625 C-55.17410131 64.12814186 -63.27253411 63.08844061 -71.1875 61.375 C-67.56522247 41.69355491 -57.40038634 24.90587363 -41.01953125 13.08984375 C-28.11274388 4.83998563 -15.33957451 -0.02837509 0 0 Z M-20.1875 10.375 C-21.04601562 10.6534375 -21.90453125 10.931875 -22.7890625 11.21875 C-38.69783913 16.9321187 -50.67730346 29.5431873 -58.6640625 44.05078125 C-60.2200035 47.4459243 -61.19945981 50.77982407 -62.1875 54.375 C-53.93104551 55.93449087 -44.88934318 57.09144983 -37.34777832 52.734375 C-30.42772414 47.37907309 -24.65570723 40.85175564 -18.8125 34.375 C-16.99096301 32.44291948 -15.16417026 30.51577986 -13.33203125 28.59375 C-8.88827783 23.90945299 -4.5134153 19.16819391 -0.1875 14.375 C3.07874375 15.78829664 5.05067956 17.45279947 7.42163086 20.09033203 C8.11433578 20.85096954 8.80704071 21.61160706 9.52073669 22.39529419 C10.26541702 23.21617523 11.01009735 24.03705627 11.77734375 24.8828125 C13.39729911 26.61097606 15.02045623 28.33614284 16.64648438 30.05859375 C19.19886828 32.76422334 21.73097726 35.47876136 24.21264648 38.24951172 C34.1090581 49.95153803 34.1090581 49.95153803 47.75048828 55.55371094 C52.87939587 55.7390877 57.76039963 55.23715915 62.8125 54.375 C60.85336612 40.83615448 50.8328926 29.23188418 40.625 20.6875 C22.87098419 7.6039657 0.87218237 3.21100248 -20.1875 10.375 Z " fill="#F86A0E" transform="translate(110.1875,113.625)"/>
<path d="M0 0 C10.94680201 -2.53656988 23.32205699 -4.41145501 34 0 C48.5258775 9.11030053 60.09526046 23.97351869 71 37 C74.13255587 35.63653503 75.96604712 34.17831028 78.14331055 31.56005859 C78.73837402 30.85965958 79.3334375 30.15926056 79.9465332 29.43763733 C80.90692505 28.30448341 80.90692505 28.30448341 81.88671875 27.1484375 C106.66158426 -1.00420399 106.66158426 -1.00420399 119.65625 -2.31640625 C127.50813107 -2.75146041 135.34788866 -1.71800585 143 0 C142.70668062 1.72999731 142.40730531 3.45896836 142.10546875 5.1875 C141.85639771 6.63189453 141.85639771 6.63189453 141.60229492 8.10546875 C137.89212047 25.9359626 124.42152651 41.24185727 109.5390625 51.02734375 C103.44715364 54.59971668 96.73715453 56.95427051 90 59 C89.36465332 59.19432617 88.72930664 59.38865234 88.07470703 59.58886719 C70.75302673 64.42703629 51.74184814 60.78458016 36.23901367 52.27758789 C30.47424698 48.9081878 25.70600592 44.72321253 21 40 C20.36707031 39.42636719 19.73414062 38.85273437 19.08203125 38.26171875 C8.09965742 28.10362905 2.96336601 14.3373145 0 0 Z M9 7 C14.58874469 24.42497615 25.70422447 38.93218869 42.01171875 47.63671875 C57.99538361 54.92861291 75.53892544 56.54650843 92.41015625 51.37890625 C110.25259171 44.52539187 123.60876591 32.01233831 132.2734375 14.984375 C133.23136994 12.3680864 133.60367603 9.75095461 134 7 C130.417094 6.85466245 126.83494583 6.76592069 123.25 6.6875 C122.23421875 6.64560547 121.2184375 6.60371094 120.171875 6.56054688 C114.23964149 6.29456868 114.23964149 6.29456868 109.44921875 9.36328125 C108.73185547 10.66845703 108.73185547 10.66845703 108 12 C106.3545622 13.68762851 104.68711423 15.3540349 103 17 C101.7625 18.2684375 101.7625 18.2684375 100.5 19.5625 C98.10821597 21.89448943 95.60605661 23.91515471 93 26 C90.31164749 28.55393489 87.87488743 31.15013508 85.5 34 C83.12885733 36.84537121 80.65020627 39.41604888 78 42 C77.071875 42.928125 76.14375 43.85625 75.1875 44.8125 C74.1046875 45.8953125 74.1046875 45.8953125 73 47 C69.73382612 45.5875231 67.77076337 43.92771954 65.40673828 41.28466797 C64.71726105 40.52403046 64.02778381 39.76339294 63.31741333 38.97970581 C62.57587006 38.15882477 61.83432678 37.33794373 61.0703125 36.4921875 C59.45508847 34.76386942 57.8364816 33.03870783 56.21484375 31.31640625 C53.66961889 28.61189106 51.14590237 25.89846048 48.67529297 23.12548828 C38.67298806 11.328205 38.67298806 11.328205 24.83496094 5.82128906 C19.48576377 5.63643548 14.26769109 6.07195369 9 7 Z " fill="#F86A0D" transform="translate(39,47)"/>
<path d="M0 0 C6.79442513 -0.25500345 13.58760441 -0.42925887 20.38574219 -0.54931641 C22.69447939 -0.59939397 25.00290279 -0.6674807 27.31054688 -0.75439453 C47.59703664 -1.49893323 47.59703664 -1.49893323 52.80175781 2.27050781 C55.25816284 4.72691284 57.21155516 7.03041825 59 10 C58.34 10.33 57.68 10.66 57 11 C57.495 13.475 57.495 13.475 58 16 C56.68 16 55.36 16 54 16 C52.5625 14.28515625 52.5625 14.28515625 51 12.0625 C46.6433739 7.47955566 42.71340605 7.1869476 36.6875 7 C33.12309225 6.93374458 29.56456266 6.95989151 26 7 C24.15753262 6.99190053 22.3150773 6.98021634 20.47265625 6.96484375 C15.98084695 6.93512674 11.49164906 6.95427054 7 7 C7 6.67 7 6.34 7 6 C19.87 5.67 32.74 5.34 46 5 C45.505 3.02 45.505 3.02 45 1 C30.15 1 15.3 1 0 1 C0 0.67 0 0.34 0 0 Z " fill="#F26508" transform="translate(28,36)"/>
<path d="M0 0 C7.26 0 14.52 0 22 0 C22.33 0.99 22.66 1.98 23 3 C24.65 3 26.3 3 28 3 C26.17689912 10.5162931 23.24186738 16.54796871 19 23 C18.34 21.68 17.68 20.36 17 19 C17.33 18.67 17.66 18.34 18 18 C16.68 17.67 15.36 17.34 14 17 C14.33773437 16.34773438 14.67546875 15.69546875 15.0234375 15.0234375 C15.46945313 14.14945313 15.91546875 13.27546875 16.375 12.375 C16.81585938 11.51648438 17.25671875 10.65796875 17.7109375 9.7734375 C19.28309547 6.52768337 19.28309547 6.52768337 21 1 C14.07 1 7.14 1 0 1 C0 0.67 0 0.34 0 0 Z " fill="#F76B0E" transform="translate(152,53)"/>
<path d="M0 0 C1.75390625 1.109375 1.75390625 1.109375 3.5625 2.75 C4.46162109 3.54664063 4.46162109 3.54664063 5.37890625 4.359375 C7 6 7 6 9 9 C8.125 12.6875 8.125 12.6875 7 16 C5.8944811 15.06409496 4.79064547 14.12620142 3.6875 13.1875 C2.76517578 12.40439453 2.76517578 12.40439453 1.82421875 11.60546875 C0 10 0 10 -1.29492188 8.43164062 C-3.59745737 6.49835481 -5.12481794 6.57442723 -8.10546875 6.48828125 C-9.08837891 6.45283203 -10.07128906 6.41738281 -11.08398438 6.38085938 C-12.10814453 6.35830078 -13.13230469 6.33574219 -14.1875 6.3125 C-15.22326172 6.27833984 -16.25902344 6.24417969 -17.32617188 6.20898438 C-19.8840066 6.12647358 -22.44149723 6.05733428 -25 6 C-25 5.67 -25 5.34 -25 5 C-17.41 4.67 -9.82 4.34 -2 4 C-1.67 3.34 -1.34 2.68 -1 2 C-1.66 1.67 -2.32 1.34 -3 1 C-2.01 0.67 -1.02 0.34 0 0 Z " fill="#F76B11" transform="translate(73,48)"/>
<path d="M0 0 C0.66 1.32 1.32 2.64 2 4 C0.8803014 5.00593243 -0.2459412 6.0045849 -1.375 7 C-2.00148437 7.556875 -2.62796875 8.11375 -3.2734375 8.6875 C-10.26075026 13.99912237 -32.99182434 10 -42 10 C-42 9.67 -42 9.34 -42 9 C-40.51790039 9.01740234 -40.51790039 9.01740234 -39.00585938 9.03515625 C-35.30764502 9.06791401 -31.61122277 9.04769344 -27.91308594 9.01220703 C-26.3186933 9.00414151 -24.72416157 9.0100696 -23.12988281 9.03076172 C-13.71140281 9.36409168 -13.71140281 9.36409168 -5.12109375 6.15234375 C-3.16613064 4.19738064 -1.52343959 2.30220303 0 0 Z " fill="#FCE6D1" transform="translate(81,166)"/>
<path d="M0 0 C-0.66 2.31 -1.32 4.62 -2 7 C-6.29 6.01 -10.58 5.02 -15 4 C-15 3.34 -15 2.68 -15 2 C-13.01432292 1.51171875 -11.02864583 1.0234375 -9.04296875 0.53515625 C-3.20403226 -0.99435484 -3.20403226 -0.99435484 0 0 Z " fill="#F67119" transform="translate(139,108)"/>
<path d="M0 0 C0.99 0.99 1.98 1.98 3 3 C2.34 5.31 1.68 7.62 1 10 C0.44731445 9.5155542 -0.10537109 9.0311084 -0.67480469 8.53198242 C-3.40764024 6.73142141 -4.9589585 6.58258842 -8.203125 6.48828125 C-9.1828125 6.45283203 -10.1625 6.41738281 -11.171875 6.38085938 C-12.18765625 6.35830078 -13.2034375 6.33574219 -14.25 6.3125 C-15.28125 6.27833984 -16.3125 6.24417969 -17.375 6.20898438 C-19.91655812 6.12661907 -22.45777626 6.05743166 -25 6 C-25 5.67 -25 5.34 -25 5 C-17.41 4.67 -9.82 4.34 -2 4 C-1.67 3.34 -1.34 2.68 -1 2 C-1.66 1.67 -2.32 1.34 -3 1 C-2.01 0.67 -1.02 0.34 0 0 Z " fill="#F27B2D" transform="translate(73,48)"/>
<path d="M0 0 C0.99 0.33 1.98 0.66 3 1 C2 4 2 4 -1.0625 5.75 C-5.30639682 7.44931968 -8.5771632 6.85352991 -13 6 C-13 4.66666667 -13 3.33333333 -13 2 C-12.22914062 2.02320312 -11.45828125 2.04640625 -10.6640625 2.0703125 C-9.15972656 2.09738281 -9.15972656 2.09738281 -7.625 2.125 C-6.62726563 2.14820312 -5.62953125 2.17140625 -4.6015625 2.1953125 C-1.83737827 2.27216848 -1.83737827 2.27216848 0 0 Z " fill="#F96807" transform="translate(140,97)"/>
<path d="M0 0 C4.2742558 1.5830577 6.26531794 4.50568404 9 8 C7.35 8.33 5.7 8.66 4 9 C3.67 8.34 3.34 7.68 3 7 C1.68 7 0.36 7 -1 7 C-1.33 6.34 -1.66 5.68 -2 5 C-2.66 4.67 -3.32 4.34 -4 4 C-2.68 2.68 -1.36 1.36 0 0 Z " fill="#F66A0F" transform="translate(110,127)"/>
<path d="M0 0 C0 0.66 0 1.32 0 2 C0.66 2.33 1.32 2.66 2 3 C1.01 3.33 0.02 3.66 -1 4 C-1 4.66 -1 5.32 -1 6 C-1.66 6 -2.32 6 -3 6 C-3 6.66 -3 7.32 -3 8 C-6.7952131 6.50902342 -8.61042731 4.24299151 -11 1 C-9.54182203 0.83197949 -8.0834516 0.66562857 -6.625 0.5 C-5.81289062 0.4071875 -5.00078125 0.314375 -4.1640625 0.21875 C-2 0 -2 0 0 0 Z " fill="#F66F16" transform="translate(115,72)"/>
<path d="M0 0 C2.64752004 2.57784846 4.94432065 4.91648098 7 8 C2.72757499 9.25659559 0.03637365 8.88364104 -4 7 C-5.375 4.875 -5.375 4.875 -6 3 C-5.01 2.67 -4.02 2.34 -3 2 C-2.67 2.66 -2.34 3.32 -2 4 C-1.34 4 -0.68 4 0 4 C0 2.68 0 1.36 0 0 Z " fill="#F67119" transform="translate(49,80)"/>
<path d="M0 0 C0.66 0.66 1.32 1.32 2 2 C1.360625 2.226875 0.72125 2.45375 0.0625 2.6875 C-0.618125 3.120625 -1.29875 3.55375 -2 4 C-2.34153937 5.66500443 -2.67449498 7.33178677 -3 9 C-5.0625 10.8125 -5.0625 10.8125 -7 12 C-7.66 11.67 -8.32 11.34 -9 11 C-9 11.99 -9 12.98 -9 14 C-10.65 14.33 -12.3 14.66 -14 15 C-14 13 -14 13 -11.6875 10.4375 C-9 8 -9 8 -6 7 C-5.67 6.01 -5.34 5.02 -5 4 C-3.37667033 2.61423077 -1.71275535 1.27358732 0 0 Z " fill="#FC6808" transform="translate(106,149)"/>
<path d="M0 0 C4.07376031 1.61010527 6.76507069 4.53822271 9.75 7.625 C10.25660156 8.140625 10.76320313 8.65625 11.28515625 9.1875 C12.52803902 10.45383339 13.76465276 11.7263144 15 13 C14.34 13.66 13.68 14.32 13 15 C11 13.625 11 13.625 9 12 C9 11.34 9 10.68 9 10 C8.01 9.67 7.02 9.34 6 9 C4.3125 7.5625 4.3125 7.5625 3 6 C3 5.34 3 4.68 3 4 C1.68 3.34 0.36 2.68 -1 2 C-0.67 1.34 -0.34 0.68 0 0 Z " fill="#F67924" transform="translate(114,146)"/>
<path d="M0 0 C7.48291572 6.15034169 7.48291572 6.15034169 10 10 C9.01 10.66 8.02 11.32 7 12 C7 11.34 7 10.68 7 10 C6.195625 9.7525 5.39125 9.505 4.5625 9.25 C3.716875 8.8375 2.87125 8.425 2 8 C1.375 5.9375 1.375 5.9375 1 4 C0.01 3.67 -0.98 3.34 -2 3 C-1.34 2.01 -0.68 1.02 0 0 Z " fill="#F77420" transform="translate(119,135)"/>
<path d="M0 0 C0.66 0.33 1.32 0.66 2 1 C2 1.99 2 2.98 2 4 C2.99 5.485 2.99 5.485 4 7 C1.69 9.31 -0.62 11.62 -3 14 C-4 10 -4 10 -3.0625 7.75 C-2.5365625 6.88375 -2.5365625 6.88375 -2 6 C-2.66 5.34 -3.32 4.68 -4 4 C-2.68 2.68 -1.36 1.36 0 0 Z " fill="#F57019" transform="translate(66,129)"/>
<path d="M0 0 C7.26 0 14.52 0 22 0 C22.33 0.99 22.66 1.98 23 3 C24.65 3 26.3 3 28 3 C27.67 4.65 27.34 6.3 27 8 C26.67 7.34 26.34 6.68 26 6 C24.35 6 22.7 6 21 6 C20.67 5.01 20.34 4.02 20 3 C20.33 2.34 20.66 1.68 21 1 C14.07 1 7.14 1 0 1 C0 0.67 0 0.34 0 0 Z " fill="#F18035" transform="translate(152,53)"/>
<path d="M0 0 C4.29 0.99 8.58 1.98 13 3 C13 3.66 13 4.32 13 5 C5.57142857 7.42857143 5.57142857 7.42857143 2 6 C2 5.01 2 4.02 2 3 C1.01 3.495 1.01 3.495 0 4 C0 2.68 0 1.36 0 0 Z " fill="#F5721C" transform="translate(84,107)"/>
<path d="M0 0 C0.33 0.66 0.66 1.32 1 2 C0.34 2 -0.32 2 -1 2 C-1 2.66 -1 3.32 -1 4 C0.65 4.33 2.3 4.66 4 5 C4 4.01 4 3.02 4 2 C5.65 2.33 7.3 2.66 9 3 C6.42947929 5.01969485 3.91490045 6.54254977 1 8 C0.34 8.66 -0.32 9.32 -1 10 C-1 9.34 -1 8.68 -1 8 C-1.66 8 -2.32 8 -3 8 C-3.33 6.02 -3.66 4.04 -4 2 C-2.68 1.34 -1.36 0.68 0 0 Z " fill="#F57018" transform="translate(147,102)"/>
<path d="M0 0 C-0.33 1.98 -0.66 3.96 -1 6 C-1.99 6 -2.98 6 -4 6 C-3.67 6.99 -3.34 7.98 -3 9 C-3.99 9.33 -4.98 9.66 -6 10 C-6.66 8.02 -7.32 6.04 -8 4 C-4.5 0 -4.5 0 0 0 Z " fill="#F86708" transform="translate(61,123)"/>
<path d="M0 0 C4.38000076 0.50057152 6.84169815 1.93193534 10 5 C10 5.99 10 6.98 10 8 C6.84669446 7.39305845 4.81111133 6.3583335 2.25 4.4375 C1.63640625 3.98246094 1.0228125 3.52742188 0.390625 3.05859375 C-0.06828125 2.70925781 -0.5271875 2.35992187 -1 2 C-0.67 1.34 -0.34 0.68 0 0 Z " fill="#FCF3E8" transform="translate(148,122)"/>
<path d="M0 0 C3.16115776 1.36983503 3.9927092 1.9890638 6 5 C5.125 8.6875 5.125 8.6875 4 12 C2.35 10.35 0.7 8.7 -1 7 C-0.34 6.67 0.32 6.34 1 6 C0.67 4.02 0.34 2.04 0 0 Z " fill="#F66F18" transform="translate(64,82)"/>
<path d="M0 0 C1.32 0 2.64 0 4 0 C2.60249952 3.15835107 0.94801766 5.32272825 -1.5 7.75 C-2.41265625 8.67039062 -2.41265625 8.67039062 -3.34375 9.609375 C-5 11 -5 11 -7 11 C-5.25 6.125 -5.25 6.125 -3 5 C-2.54625 4.154375 -2.0925 3.30875 -1.625 2.4375 C-1.08875 1.633125 -0.5525 0.82875 0 0 Z " fill="#F6701A" transform="translate(162,81)"/>
<path d="M0 0 C1.12894876 0.93274109 2.25300876 1.87140122 3.375 2.8125 C4.00148437 3.33457031 4.62796875 3.85664063 5.2734375 4.39453125 C7 6 7 6 9 9 C5 9 5 9 2 7 C1.67 7.66 1.34 8.32 1 9 C1 8.01 1 7.02 1 6 C0.67 5.34 0.34 4.68 0 4 C-0.33 3.34 -0.66 2.68 -1 2 C-0.67 1.34 -0.34 0.68 0 0 Z " fill="#F77721" transform="translate(135,166)"/>
<path d="M0 0 C-0.55105909 3.9492568 -1.38935371 7.34920174 -3 11 C-3.99 10.67 -4.98 10.34 -6 10 C-5.38909774 3.52443609 -5.38909774 3.52443609 -3.5625 1.0625 C-2 0 -2 0 0 0 Z " fill="#FCF5ED" transform="translate(45,154)"/>
<path d="M0 0 C2.16874252 0.50603992 3.99967627 0.99983813 6 2 C6 2.66 6 3.32 6 4 C5.01 4 4.02 4 3 4 C3 4.66 3 5.32 3 6 C3.99 6.33 4.98 6.66 6 7 C1.545 7.495 1.545 7.495 -3 8 C-2.01 7.67 -1.02 7.34 0 7 C0 6.01 0 5.02 0 4 C-0.66 3.67 -1.32 3.34 -2 3 C-1.34 2.34 -0.68 1.68 0 1 C0 0.67 0 0.34 0 0 Z " fill="#F7741F" transform="translate(120,100)"/>
<path d="M0 0 C0 3 0 3 -2 6 C-2.16699232 9.12521833 -2.16699232 9.12521833 -2 12 C-2.99 11.01 -3.98 10.02 -5 9 C-6.32 9.99 -7.64 10.98 -9 12 C-9.66 11.67 -10.32 11.34 -11 11 C-7.37 7.37 -3.74 3.74 0 0 Z " fill="#F56605" transform="translate(137,59)"/>
<path d="M0 0 C3.26954202 0.56371414 4.82575883 1.49962266 7 4 C6.67 4.66 6.34 5.32 6 6 C2.5625 6.75 2.5625 6.75 -1 7 C-1.66 6.34 -2.32 5.68 -3 5 C-2.34 4.34 -1.68 3.68 -1 3 C-0.67 2.01 -0.34 1.02 0 0 Z " fill="#F66E15" transform="translate(147,125)"/>
<path d="M0 0 C1.98 1.65 3.96 3.3 6 5 C4.35 6.65 2.7 8.3 1 10 C-0.60725635 6.78548731 -0.05748185 3.56387464 0 0 Z " fill="#F8741C" transform="translate(129,160)"/>
<path d="M0 0 C0.99 0 1.98 0 3 0 C3.33 1.98 3.66 3.96 4 6 C2.35 6.33 0.7 6.66 -1 7 C-1.625 5.1875 -1.625 5.1875 -2 3 C-1.34 2.01 -0.68 1.02 0 0 Z " fill="#F96706" transform="translate(68,128)"/>
<path d="M0 0 C1.5625 1.0625 1.5625 1.0625 3 3 C2.6875 6.6875 2.6875 6.6875 2 10 C1.34 10 0.68 10 0 10 C0 9.34 0 8.68 0 8 C-0.66 8 -1.32 8 -2 8 C-1.34 5.36 -0.68 2.72 0 0 Z " fill="#F7751E" transform="translate(32,158)"/>
<path d="M0 0 C0.66 0.33 1.32 0.66 2 1 C2.25 4.3125 2.25 4.3125 2 8 C0 9.9375 0 9.9375 -2 11 C-2.19622241 6.78121808 -1.80230168 3.82989106 0 0 Z " fill="#F76C13" transform="translate(35,151)"/>
<path d="M0 0 C-1.98 2.31 -3.96 4.62 -6 7 C-8 4 -8 4 -8 2 C-4.77208445 -0.1519437 -3.71599191 -0.20086443 0 0 Z " fill="#FAEFE2" transform="translate(65,130)"/>
<path d="M0 0 C0 0.99 0 1.98 0 3 C-0.66 3.66 -1.32 4.32 -2 5 C-2.64767793 7.57061311 -2.64767793 7.57061311 -3 10 C-4.37562854 8.71034824 -5.70766393 7.37310707 -7 6 C-7 5.34 -7 4.68 -7 4 C-4.69 2.68 -2.38 1.36 0 0 Z " fill="#FA6808" transform="translate(120,79)"/>
<path d="M0 0 C2 2 2 2 2 5 C1.34 5 0.68 5 0 5 C0 5.66 0 6.32 0 7 C-1.65 6.67 -3.3 6.34 -5 6 C-3.35 4.02 -1.7 2.04 0 0 Z " fill="#F56B12" transform="translate(91,146)"/>
<path d="M0 0 C4.2742558 1.5830577 6.26531794 4.50568404 9 8 C7.35 8.33 5.7 8.66 4 9 C3.566875 7.88625 3.566875 7.88625 3.125 6.75 C2.17697356 4.43260203 1.15154089 2.22082885 0 0 Z " fill="#F47B2A" transform="translate(110,127)"/>
<path d="M0 0 C-0.66 2.31 -1.32 4.62 -2 7 C-3.65 6.67 -5.3 6.34 -7 6 C-6.01 5.67 -5.02 5.34 -4 5 C-4 3.68 -4 2.36 -4 1 C-4.99 0.67 -5.98 0.34 -7 0 C-3.86650268 -1.04449911 -3.01031744 -0.93423645 0 0 Z " fill="#F27625" transform="translate(139,108)"/>
<path d="M0 0 C1.98 1.65 3.96 3.3 6 5 C5.01 6.32 4.02 7.64 3 9 C3 8.01 3 7.02 3 6 C1.68 5.34 0.36 4.68 -1 4 C-0.67 2.68 -0.34 1.36 0 0 Z " fill="#F87620" transform="translate(135,151)"/>
<path d="M0 0 C0.33 0.66 0.66 1.32 1 2 C0.01 2.66 -0.98 3.32 -2 4 C-3.21284876 7.05429073 -3.21284876 7.05429073 -4 10 C-4.99 10 -5.98 10 -7 10 C-6.34 9.01 -5.68 8.02 -5 7 C-5.66 6.67 -6.32 6.34 -7 6 C-4.69 4.02 -2.38 2.04 0 0 Z " fill="#FDF6EA" transform="translate(74,132)"/>
<path d="M0 0 C0.33 1.32 0.66 2.64 1 4 C3.97 4.495 3.97 4.495 7 5 C7 5.99 7 6.98 7 8 C3.95613276 8.08226668 1.92824652 7.97608217 -1 7 C-0.67 4.69 -0.34 2.38 0 0 Z " fill="#FD6707" transform="translate(105,81)"/>
<path d="M0 0 C0.66 1.32 1.32 2.64 2 4 C1.38125 4.268125 0.7625 4.53625 0.125 4.8125 C-2.2995233 5.95556848 -2.2995233 5.95556848 -4 9 C-4.8125 7.3125 -4.8125 7.3125 -5 5 C-2.5625 2.25 -2.5625 2.25 0 0 Z " fill="#F7721B" transform="translate(38,59)"/>
<path d="M0 0 C0.99 0.99 1.98 1.98 3 3 C2.01 3.33 1.02 3.66 0 4 C-1.20882096 6.00016466 -1.20882096 6.00016466 -2 8 C-2.33 8 -2.66 8 -3 8 C-3.36923077 3.44615385 -3.36923077 3.44615385 -1.5 1.1875 C-1.005 0.795625 -0.51 0.40375 0 0 Z " fill="#F7751F" transform="translate(120,81)"/>
<path d="M0 0 C0.99 1.32 1.98 2.64 3 4 C0.03 6.475 0.03 6.475 -3 9 C-3 7.02 -3 5.04 -3 3 C-2.34 2.67 -1.68 2.34 -1 2 C-0.67 1.34 -0.34 0.68 0 0 Z " fill="#F87119" transform="translate(138,62)"/>
<path d="M0 0 C1.25541557 3.76624671 0.37061958 5.37188934 -1 9 C-1.33 8.01 -1.66 7.02 -2 6 C-2.66 6 -3.32 6 -4 6 C-3.6875 4.125 -3.6875 4.125 -3 2 C-2.01 1.34 -1.02 0.68 0 0 Z " fill="#FBE5D3" transform="translate(185,48)"/>
<path d="M0 0 C1.32 0.66 2.64 1.32 4 2 C2.84826645 4.46800047 1.95216435 6.04783565 0 8 C-0.99 7.01 -1.98 6.02 -3 5 C-2.34 4.67 -1.68 4.34 -1 4 C-0.34786708 1.97536745 -0.34786708 1.97536745 0 0 Z " fill="#F56F16" transform="translate(71,101)"/>
<path d="M0 0 C1.65 1.65 3.3 3.3 5 5 C3.02 5.99 3.02 5.99 1 7 C0.34 6.34 -0.32 5.68 -1 5 C-0.625 2.375 -0.625 2.375 0 0 Z " fill="#F8E5D3" transform="translate(57,84)"/>
<path d="M0 0 C0.99 0.99 1.98 1.98 3 3 C0.03 5.475 0.03 5.475 -3 8 C-3.36923077 3.44615385 -3.36923077 3.44615385 -1.5 1.1875 C-1.005 0.795625 -0.51 0.40375 0 0 Z " fill="#F7711B" transform="translate(132,69)"/>
<path d="M0 0 C0.99 1.32 1.98 2.64 3 4 C0.03 6.475 0.03 6.475 -3 9 C-3.125 6.625 -3.125 6.625 -3 4 C-2.34 3.34 -1.68 2.68 -1 2 C-0.67 1.34 -0.34 0.68 0 0 Z " fill="#F87219" transform="translate(144,56)"/>
<path d="M0 0 C1.98 1.65 3.96 3.3 6 5 C5.01 6.32 4.02 7.64 3 9 C0.70620251 5.55930376 0 4.27709699 0 0 Z " fill="#F87724" transform="translate(141,157)"/>
<path d="M0 0 C0.28875 0.639375 0.5775 1.27875 0.875 1.9375 C1.82823451 4.15206079 1.82823451 4.15206079 4 5 C4 6.65 4 8.3 4 10 C2.0625 9.375 2.0625 9.375 0 8 C-1.40540541 2.81081081 -1.40540541 2.81081081 0 0 Z " fill="#F46D15" transform="translate(38,146)"/>
<path d="M0 0 C1.98 1.65 3.96 3.3 6 5 C5.67 5.66 5.34 6.32 5 7 C2.525 6.01 2.525 6.01 0 5 C0 3.35 0 1.7 0 0 Z " fill="#F87826" transform="translate(129,145)"/>
<path d="M0 0 C0.99 0.99 1.98 1.98 3 3 C0.03 5.475 0.03 5.475 -3 8 C-3 6.35 -3 4.7 -3 3 C-2.01 2.67 -1.02 2.34 0 2 C0 1.34 0 0.68 0 0 Z " fill="#F7721C" transform="translate(126,75)"/>
<path d="M0 0 C0.99 0 1.98 0 3 0 C2.67 1.65 2.34 3.3 2 5 C0.02 5.33 -1.96 5.66 -4 6 C-2.1875 3 -2.1875 3 0 0 Z " fill="#F9EBDB" transform="translate(170,76)"/>
<path d="M0 0 C1.98 0.66 3.96 1.32 6 2 C6 2.99 6 3.98 6 5 C4.125 4.75 4.125 4.75 2 4 C0.75 1.9375 0.75 1.9375 0 0 Z " fill="#FBFAF4" transform="translate(152,125)"/>
<path d="M0 0 C0.33 1.32 0.66 2.64 1 4 C-0.65 4.66 -2.3 5.32 -4 6 C-4 4.35 -4 2.7 -4 1 C-2 0 -2 0 0 0 Z " fill="#FAECDD" transform="translate(80,117)"/>
<path d="M0 0 C0.185625 0.9590625 0.185625 0.9590625 0.375 1.9375 C0.684375 2.9584375 0.684375 2.9584375 1 4 C1.66 4.33 2.32 4.66 3 5 C2.67 5.99 2.34 6.98 2 8 C0.68 7.34 -0.64 6.68 -2 6 C-2 4.35 -2 2.7 -2 1 C-1.34 0.67 -0.68 0.34 0 0 Z " fill="#F76F17" transform="translate(73,112)"/>
<path d="M0 0 C2.475 0.99 2.475 0.99 5 2 C4.67 3.32 4.34 4.64 4 6 C1.525 5.01 1.525 5.01 -1 4 C-0.67 2.68 -0.34 1.36 0 0 Z " fill="#FBEBD9" transform="translate(76,99)"/>
<path d="M0 0 C0.66 0.33 1.32 0.66 2 1 C2 2.32 2 3.64 2 5 C1.01 5 0.02 5 -1 5 C-1.66 4.01 -2.32 3.02 -3 2 C-2.01 1.34 -1.02 0.68 0 0 Z " fill="#F7731A" transform="translate(128,57)"/>
<path d="M0 0 C-0.99 0.33 -1.98 0.66 -3 1 C-2.01 1.66 -1.02 2.32 0 3 C-1.98 3.33 -3.96 3.66 -6 4 C-6 2.68 -6 1.36 -6 0 C-3.50907189 -1.24546405 -2.58919267 -0.7767578 0 0 Z " fill="#FCEEE1" transform="translate(96,113)"/>
<path d="M0 0 C0.66 0.33 1.32 0.66 2 1 C1.01 2.98 0.02 4.96 -1 7 C-3.475 6.01 -3.475 6.01 -6 5 C-5.38125 4.731875 -4.7625 4.46375 -4.125 4.1875 C-1.7004767 3.04443152 -1.7004767 3.04443152 0 0 Z " fill="#F4711B" transform="translate(141,121)"/>
<path d="M0 0 C0.99 0.33 1.98 0.66 3 1 C3.33 2.98 3.66 4.96 4 7 C3.01 7 2.02 7 1 7 C0.67 4.69 0.34 2.38 0 0 Z " fill="#FA6705" transform="translate(172,80)"/>
</svg>
