<?xml version="1.0" encoding="UTF-8"?>
<svg version="1.1" xmlns="http://www.w3.org/2000/svg" width="512" height="512">
<path d="M0 0 C0.69673828 0.1556543 1.39347656 0.31130859 2.11132812 0.47167969 C27.22128417 6.34473663 48.72084868 20.18326769 67 38 C67.763125 38.68964844 68.52625 39.37929687 69.3125 40.08984375 C91.26303292 60.51167884 103.5396947 91.68917862 107 121 C107.0633117 123.14500031 107.0866101 125.29170098 107.0625 127.4375 C107.05347656 128.48808594 107.04445313 129.53867188 107.03515625 130.62109375 C107.01775391 131.79865234 107.01775391 131.79865234 107 133 C108.4540625 133.20302734 108.4540625 133.20302734 109.9375 133.41015625 C134.54406556 137.2153272 157.05983828 151.21967391 172 171.1875 C183.58342214 187.63282273 190.95187902 205.7363277 192 226 C192.07927734 227.29550781 192.07927734 227.29550781 192.16015625 228.6171875 C193.05660539 256.75789532 181.86462925 281.15229209 163.53125 301.77734375 C149.99260605 316.0412722 132.96620182 324.51922664 114 329 C113.25786507 329.17685333 112.51573013 329.35370667 111.75110626 329.53591919 C100.90328431 331.71415684 89.89803548 331.24849823 78.88867188 331.1953125 C76.55172351 331.19146948 74.21477348 331.18854408 71.87782288 331.1864624 C66.86391613 331.1801623 61.85007753 331.16765829 56.8361969 331.15032959 C49.57412082 331.12548855 42.31207159 331.11303752 35.04995984 331.10446286 C23.24731911 331.09036118 11.44470601 331.06878464 -0.35791016 331.04101562 C-1.06273334 331.03936 -1.76755653 331.03770438 -2.493738 331.03599858 C-8.21151495 331.02251123 -13.92929102 331.00865967 -19.64706707 330.99479294 C-24.6454076 330.98268642 -29.64374844 330.97072544 -34.64208984 330.95898438 C-35.69802148 330.95649999 -35.69802148 330.95649999 -36.77528507 330.95396543 C-48.53688395 330.92653937 -60.29848333 330.90705108 -72.0601058 330.89316368 C-79.94135646 330.88322396 -87.82250345 330.86354232 -95.70371246 330.83630371 C-100.61323421 330.82134151 -105.5227419 330.81474466 -110.4322834 330.8103714 C-112.70096753 330.80664063 -114.96964914 330.79946535 -117.23830986 330.78850555 C-128.04290368 330.7379711 -138.38261206 330.74955343 -149 333 C-165.22912904 334.30420472 -181.30662052 333.33375149 -197 329 C-197.67272949 328.81808105 -198.34545898 328.63616211 -199.03857422 328.44873047 C-230.8411801 319.57192429 -256.80973681 297.35747504 -273.14306641 269.01660156 C-289.18853194 240.04462858 -292.37364431 205.95239923 -284 174 C-275.17695428 143.28518671 -253.65707414 115.81027334 -225.91015625 100.09765625 C-210.21678992 91.53085987 -189.77432537 83.01730405 -171.59375 84.2265625 C-167.90592662 84.3872704 -165.44311366 84.3671859 -162 83 C-158.80825531 78.65051764 -156.85807586 74.04574855 -154.85449219 69.06103516 C-143.23094105 41.02502982 -114.29848177 18.99605758 -87.04492188 7.39086914 C-59.44558694 -3.91885833 -29.20156722 -6.64155973 0 0 Z " fill="#FDFEFE" transform="translate(311,115)"/>
<path d="M0 0 C0.94488281 0.78117187 1.88976562 1.56234375 2.86328125 2.3671875 C23.2471717 19.95441971 38.08672417 46.56456534 40.46875 73.57421875 C40.73868936 77.38110894 40.89854072 81.18513118 41 85 C39.90558594 85.11214844 39.90558594 85.11214844 38.7890625 85.2265625 C8.02453128 89.10061458 -16.42786696 107.51627705 -36.14746094 130.64916992 C-40.33255355 135.45383826 -44.81019994 139.93597048 -49.328125 144.42578125 C-50.19894714 145.29518845 -51.06976929 146.16459564 -51.96697998 147.06034851 C-54.72562833 149.81344218 -57.4877456 152.56302488 -60.25 155.3125 C-62.12002358 157.17750186 -63.98981749 159.04273405 -65.859375 160.90820312 C-69.96006272 164.99910141 -74.0629337 169.08779509 -78.16778564 173.17451477 C-79.78037015 174.78117678 -81.3905242 176.39022562 -83 178 C-83.75023437 178.74636719 -84.50046875 179.49273437 -85.2734375 180.26171875 C-87.27436707 182.27124831 -89.25586804 184.29332167 -91.2265625 186.33203125 C-92.35928009 187.49228017 -93.49209388 188.65243517 -94.625 189.8125 C-95.19734375 190.40998047 -95.7696875 191.00746094 -96.359375 191.62304688 C-97.84989214 193.13956141 -99.42030945 194.57661128 -101 196 C-101.99 196 -102.98 196 -104 196 C-104.09796875 196.58910156 -104.1959375 197.17820312 -104.296875 197.78515625 C-105.13947811 200.43935603 -106.23340744 201.53927266 -108.25 203.4375 C-108.83265625 203.99308594 -109.4153125 204.54867187 -110.015625 205.12109375 C-110.67046875 205.74113281 -111.3253125 206.36117187 -112 207 C-115.04153133 209.98721827 -117.97986521 213.03856364 -120.84155273 216.19848633 C-142.03710583 239.54702852 -164.33019693 259.17586669 -197.3972168 261.14257812 C-217.16020539 261.89058349 -234.33540657 258.9905816 -252 250 C-253.04542969 249.47664063 -254.09085938 248.95328125 -255.16796875 248.4140625 C-278.09328944 235.99744231 -294.38421983 214.43534487 -301.96875 189.734375 C-308.98248689 164.33614594 -307.65593548 137.46285144 -294.890625 114.01953125 C-280.36032817 88.5090254 -259.06492251 71.16771252 -230.80859375 63.03515625 C-205.87819793 56.25920251 -179.85044719 60.63830059 -157 72.3125 C-147.34411521 77.892849 -138.61251735 84.85637679 -131 93 C-128.17131143 91.70396588 -126.0298979 90.30810402 -123.765625 88.1796875 C-123.19199219 87.64472656 -122.61835938 87.10976562 -122.02734375 86.55859375 C-121.14755859 85.72521484 -121.14755859 85.72521484 -120.25 84.875 C-119.34701172 84.03001953 -119.34701172 84.03001953 -118.42578125 83.16796875 C-116.94665849 81.78275854 -115.47280359 80.3919271 -114 79 C-127.75988297 57.25752127 -155.28616516 46.41439795 -179 40 C-177.63835551 35.287712 -175.61579445 31.38503769 -172.9375 27.3125 C-172.33869019 26.39730591 -172.33869019 26.39730591 -171.7277832 25.46362305 C-153.40195423 -2.09528606 -126.66371911 -18.42764664 -94.74609375 -25.74609375 C-61.3004651 -31.93972868 -25.7609298 -21.7951463 0 0 Z " fill="#1B3092" transform="translate(353,163)"/>
<path d="M0 0 C1.09497803 0.00902344 2.18995605 0.01804687 3.31811523 0.02734375 C23.89284176 0.46378194 42.06540869 8.02155595 56.8125 22.4375 C72.58054826 38.8947112 77.47087764 58.17690158 77.1484375 80.38671875 C76.7950923 89.39882038 75.32714182 97.61468933 71.375 105.75 C71.02864502 106.46929687 70.68229004 107.18859375 70.32543945 107.9296875 C60.41918006 127.61634362 44.47091791 139.52294297 24.1484375 147.359375 C13.91378615 150.66706092 4.34773821 150.67692002 -6.28344727 150.57275391 C-8.11725899 150.56231629 -9.95107606 150.55278321 -11.78489685 150.54408264 C-16.74297473 150.51801216 -21.70088262 150.47934324 -26.65885663 150.43835878 C-31.84779782 150.39762535 -37.03680425 150.36855254 -42.22581482 150.33822632 C-52.04288794 150.27908886 -61.859858 150.20951198 -71.67683405 150.13615549 C-82.85694915 150.05312353 -94.03712933 149.9817735 -105.2173301 149.91138959 C-128.20748244 149.7663963 -151.19751457 149.60678188 -174.1875 149.4375 C-173.23583944 148.15185162 -172.28185961 146.8679198 -171.3269043 145.5847168 C-170.79590622 144.86954391 -170.26490814 144.15437103 -169.71781921 143.41752625 C-167.97355982 141.16069033 -166.08119148 139.19826108 -164 137.25 C-161.8205198 135.140296 -160.22545505 133.50233987 -158.6875 130.875 C-157.15738987 128.38857103 -155.76055221 127.11742972 -153.53881836 125.25756836 C-149.41573144 121.70538369 -145.7388367 117.88779336 -142.06640625 113.87890625 C-135.6706412 106.99442079 -129.12100156 100.28515148 -122.46484375 93.65234375 C-121.54047516 92.73119781 -120.61610657 91.81005188 -119.66372681 90.86099243 C-116.81938311 88.03041015 -113.97272097 85.20218336 -111.125 82.375 C-108.23556315 79.50615008 -105.34686371 76.63657782 -102.46205139 73.76307678 C-100.68582347 71.99426785 -98.90735785 70.22770191 -97.12620544 68.46385193 C-92.83348156 64.1886617 -88.71748075 59.83996622 -84.76863098 55.24571228 C-82.43409057 52.57588625 -79.95020261 50.07505208 -77.4296875 47.58203125 C-76.91874542 47.07250412 -76.40780334 46.56297699 -75.88137817 46.03800964 C-74.27746182 44.4395976 -72.67008255 42.84472383 -71.0625 41.25 C-69.98023291 40.17276293 -68.89820014 39.09529039 -67.81640625 38.01757812 C-65.82809746 36.03735746 -63.83820634 34.05877988 -61.84716797 32.08129883 C-57.02752619 27.32554534 -57.02752619 27.32554534 -52.3359375 22.4453125 C-38.74627868 8.01752494 -19.69606393 -0.19575248 0 0 Z " fill="#9167D5" transform="translate(401.1875,271.5625)"/>
<path d="M0 0 C0.94488281 0.78117187 1.88976562 1.56234375 2.86328125 2.3671875 C23.2471717 19.95441971 38.08672417 46.56456534 40.46875 73.57421875 C40.73868936 77.38110894 40.89854072 81.18513118 41 85 C39.90558594 85.11214844 39.90558594 85.11214844 38.7890625 85.2265625 C8.03161655 89.09972236 -16.43424289 107.51059377 -36.14306641 130.64697266 C-40.34588652 135.47208295 -44.85304014 139.96067587 -49.3984375 144.4609375 C-50.27400299 145.33271637 -51.14956848 146.20449524 -52.05166626 147.10269165 C-55.29695047 150.33377315 -58.54684828 153.56018902 -61.796875 156.78649902 C-65.00011441 159.96692099 -68.19963183 163.15105723 -71.3984375 166.3359375 C-72.24626801 167.17546967 -73.09409851 168.01500183 -73.96762085 168.87997437 C-74.74578156 169.65483185 -75.52394226 170.42968933 -76.32568359 171.22802734 C-77.35657608 172.25106461 -77.35657608 172.25106461 -78.40829468 173.29476929 C-80.0804316 174.92470219 -80.0804316 174.92470219 -81 177 C-81.66 176.67 -82.32 176.34 -83 176 C-82.83991455 175.27433838 -82.6798291 174.54867676 -82.51489258 173.80102539 C-77.47260954 146.37091006 -86.72953389 116.62446409 -102 94 C-104.53611309 90.53890046 -107.20196742 87.25011645 -110 84 C-112.07911953 81.46225116 -113.95502205 79.07611653 -115.625 76.25 C-128.96323635 56.21709329 -156.98885277 45.95383491 -179 40 C-177.63835551 35.287712 -175.61579445 31.38503769 -172.9375 27.3125 C-172.53829346 26.70237061 -172.13908691 26.09224121 -171.7277832 25.46362305 C-153.40195423 -2.09528606 -126.66371911 -18.42764664 -94.74609375 -25.74609375 C-61.3004651 -31.93972868 -25.7609298 -21.7951463 0 0 Z " fill="#0093EC" transform="translate(353,163)"/>
<path d="M0 0 C-0.73737502 22.85862554 -13.94801302 46.38480863 -29 63 C-29.78648926 63.87495117 -29.78648926 63.87495117 -30.58886719 64.76757812 C-52.93881958 89.24295423 -83.03109631 102.51707763 -115.9375 104.6875 C-116.66001953 104.73616211 -117.38253906 104.78482422 -118.12695312 104.83496094 C-121.927119 105.04292137 -125.30918024 104.96062432 -129 104 C-124.51569523 98.6210357 -119.76332087 93.64458006 -114.78515625 88.72265625 C-114.01119003 87.95247665 -113.23722382 87.18229706 -112.43980408 86.38877869 C-109.15678267 83.12197146 -105.86782055 79.86116959 -102.5793457 76.59985352 C-100.16668469 74.20538862 -97.75711573 71.80784203 -95.34765625 69.41015625 C-94.61515152 68.68594986 -93.88264679 67.96174347 -93.12794495 67.21559143 C-89.11933393 63.22587361 -85.31439969 59.13352636 -81.62260437 54.84968567 C-79.27087811 52.16883849 -76.77669379 49.65139064 -74.2421875 47.14453125 C-73.73124542 46.63500412 -73.22030334 46.12547699 -72.69387817 45.60050964 C-71.08996182 44.0020976 -69.48258255 42.40722383 -67.875 40.8125 C-66.79273291 39.73526293 -65.71070014 38.65779039 -64.62890625 37.58007812 C-62.64059746 35.59985746 -60.65070634 33.62127988 -58.65966797 31.64379883 C-53.84002619 26.88804534 -53.84002619 26.88804534 -49.1484375 22.0078125 C-36.83596694 8.93598252 -18.19165858 -0.89467173 0 0 Z " fill="#6591E4" transform="translate(398,272)"/>
</svg>
