<?xml version="1.0" encoding="UTF-8"?>
<svg version="1.1" xmlns="http://www.w3.org/2000/svg" width="150" height="150">
<path d="M0 0 C2.1737546 1.66292227 4.26105635 3.39334021 6.34375 5.16796875 C7.33375 5.88984375 8.32375 6.61171875 9.34375 7.35546875 C23.05900004 19.05712252 30.80837729 37.78064483 32.56689453 55.40429688 C33.97614887 75.74350363 28.15728298 95.34089924 15.09375 111.10546875 C1.44351916 126.71182219 -17.51963812 136.1180968 -38.140625 137.546875 C-58.50999028 138.37814267 -77.80574109 131.97776896 -93.20263672 118.51074219 C-108.50072076 104.38276655 -117.28429685 85.13556411 -118.12695312 64.42773438 C-118.37775985 45.08217587 -112.22600422 27.91975855 -99.65625 13.16796875 C-98.934375 12.17796875 -98.2125 11.18796875 -97.46875 10.16796875 C-73.66324292 -17.73394052 -29.03615074 -20.02640396 0 0 Z " fill="#FDFDFD" transform="translate(117.65625,12.83203125)"/>
<path d="M0 0 C3.3 0 6.6 0 10 0 C10 4.95 10 9.9 10 15 C12.97 15 15.94 15 19 15 C19 10.38 19 5.76 19 1 C22.3 1 25.6 1 29 1 C29 5.62 29 10.24 29 15 C31.31 15 33.62 15 36 15 C44.81637311 17.61431884 50.24168325 22.46227234 54.70703125 30.3828125 C59.90565123 40.90569886 59.50710062 54.95253266 56.3125 66.0625 C53.11769693 75.00126956 48.80264342 81.44427165 41 87 C36.48323111 89.07771369 34.21370827 89 29 89 C29 93.62 29 98.24 29 103 C25.7 103 22.4 103 19 103 C19 98.71 19 94.42 19 90 C16.03 90 13.06 90 10 90 C10 94.62 10 99.24 10 104 C6.7 104 3.4 104 0 104 C0 99.38 0 94.76 0 90 C-1.98 90 -3.96 90 -6 90 C-6 64.92 -6 39.84 -6 14 C-4.02 14 -2.04 14 0 14 C0 9.38 0 4.76 0 0 Z " fill="#050505" transform="translate(56,23)"/>
<path d="M0 0 C22.41176471 0 22.41176471 0 27.75 4.125 C32.49568777 10.18893437 33.5384654 16.39795111 33.4375 23.875 C33.42992676 24.66221436 33.42235352 25.44942871 33.41455078 26.26049805 C33.21956896 33.16385078 32.20479477 39.22806458 27.609375 44.63671875 C19.614013 51.97982754 10.56945854 50 0 50 C0 33.5 0 17 0 0 Z " fill="#F6F6F6" transform="translate(65,50)"/>
</svg>
