<svg width="60" height="60" viewBox="0 0 60 60" fill="none" xmlns="http://www.w3.org/2000/svg">
<rect width="60" height="60" rx="30" fill="#006838"/>
<path d="M42.653 9H18.218L6 30.162L18.218 51.324H42.653L54.871 30.162L42.653 9ZM19.853 48.486L11.7 34.359C12.3916 34.2118 13.0901 34.0993 13.793 34.022C14.28 33.97 14.765 33.935 15.252 33.922C18.7421 33.792 22.2109 34.5186 25.3554 36.0383C28.4999 37.558 31.2244 39.8245 33.291 42.64H35.3C32.481 38.333 28.2941 35.1004 23.414 33.463C21.4459 32.7978 19.3971 32.4009 17.323 32.283C16.855 32.257 16.386 32.245 15.923 32.25L14.93 30.621L14.668 30.165L14.952 29.675L17.872 24.611L22.551 16.506H31.843C32.2265 15.9721 32.5826 15.419 32.91 14.849H21.6L15.9 24.718L13.117 29.537L12.755 30.161L13.105 30.768L14.105 32.326C13.668 32.364 13.232 32.413 12.797 32.477C12.138 32.577 11.482 32.701 10.829 32.854L9.276 30.162L19.856 11.838H36.083C35.8723 12.4573 35.6337 13.067 35.367 13.667C35.102 14.267 34.807 14.854 34.483 15.431C34.046 16.2126 33.5603 16.9661 33.029 17.687C30.2184 21.5151 26.2039 24.2886 21.629 25.563C20.5389 25.8697 19.4265 26.0911 18.302 26.225L17.29 27.981C18.9114 27.8737 20.5171 27.5972 22.081 27.156C27.4046 25.6694 32.0098 22.3054 35.045 17.686C35.3 17.301 35.545 16.908 35.773 16.504H38.32L41.061 21.249L46.206 30.161L41.059 39.078C41.259 39.463 41.459 39.844 41.688 40.222C41.788 40.397 41.898 40.572 42.007 40.742L48.117 30.159L42.007 19.578L39.278 14.853H36.646C36.83 14.463 37.005 14.07 37.166 13.671C37.413 13.071 37.629 12.46 37.823 11.842H41.015L51.595 30.166L43.114 44.856C42.6973 44.4147 42.2997 43.956 41.921 43.48C41.3139 42.7168 40.7603 41.9125 40.264 41.073C40.177 40.924 40.089 40.773 40.006 40.624C38.3191 37.6122 37.3864 34.2368 37.2876 30.7862C37.1889 27.3355 37.927 23.9123 39.439 20.809L38.455 19.109C36.602 22.4967 35.6294 26.2955 35.6264 30.1568C35.6235 34.0182 36.5902 37.8185 38.438 41.209C38.568 41.445 38.703 41.684 38.838 41.918C38.921 42.06 39.006 42.199 39.093 42.339L38.08 43.824H22.551L17.827 35.643C17.1767 35.5839 16.5239 35.5579 15.871 35.565L21.6 45.474H39.28L40.217 43.974C40.4677 44.3073 40.7277 44.6357 40.997 44.959C41.397 45.439 41.818 45.899 42.255 46.344L41.017 48.487L19.853 48.486Z" fill="white"/>
</svg>
